<mxfile host="app.diagrams.net" agent="Mozilla/5.0 (Windows NT 10.0; Win64; x64) AppleWebKit/537.36 (KHTML, like Gecko) Chrome/133.0.0.0 Safari/537.36 OPR/118.0.0.0 (Edition std-2)" version="27.0.9">
  <diagram name="PÃ¡gina-1" id="h6Lc9-Aa9NwLF9lz0sNI">
    <mxGraphModel grid="1" page="1" gridSize="10" guides="1" tooltips="1" connect="1" arrows="1" fold="1" pageScale="1" pageWidth="827" pageHeight="1169" math="0" shadow="0">
      <root>
        <mxCell id="0" />
        <mxCell id="1" parent="0" />
        <mxCell id="3bQYq2WR-_ZfJbJef4W1-1" value="Ator" style="shape=umlLifeline;perimeter=lifelinePerimeter;whiteSpace=wrap;container=1;dropTarget=0;collapsible=0;recursiveResize=0;outlineConnect=0;portConstraint=eastwest;newEdgeStyle={&quot;edgeStyle&quot;:&quot;elbowEdgeStyle&quot;,&quot;elbow&quot;:&quot;vertical&quot;,&quot;curved&quot;:0,&quot;rounded&quot;:0};size=65;" vertex="1" parent="1">
          <mxGeometry x="360" y="230" width="150" height="1540" as="geometry" />
        </mxCell>
        <mxCell id="3bQYq2WR-_ZfJbJef4W1-2" value="Menu" style="shape=umlLifeline;perimeter=lifelinePerimeter;whiteSpace=wrap;container=1;dropTarget=0;collapsible=0;recursiveResize=0;outlineConnect=0;portConstraint=eastwest;newEdgeStyle={&quot;edgeStyle&quot;:&quot;elbowEdgeStyle&quot;,&quot;elbow&quot;:&quot;vertical&quot;,&quot;curved&quot;:0,&quot;rounded&quot;:0};size=65;" vertex="1" parent="1">
          <mxGeometry x="596" y="230" width="150" height="1530" as="geometry" />
        </mxCell>
        <mxCell id="3bQYq2WR-_ZfJbJef4W1-3" value="" style="points=[];perimeter=orthogonalPerimeter;outlineConnect=0;targetShapes=umlLifeline;portConstraint=eastwest;newEdgeStyle={&quot;edgeStyle&quot;:&quot;elbowEdgeStyle&quot;,&quot;elbow&quot;:&quot;vertical&quot;,&quot;curved&quot;:0,&quot;rounded&quot;:0}" vertex="1" parent="3bQYq2WR-_ZfJbJef4W1-2">
          <mxGeometry x="70" y="107" width="10" height="1403" as="geometry" />
        </mxCell>
        <mxCell id="3bQYq2WR-_ZfJbJef4W1-4" value="InimigoController" style="shape=umlLifeline;perimeter=lifelinePerimeter;whiteSpace=wrap;container=1;dropTarget=0;collapsible=0;recursiveResize=0;outlineConnect=0;portConstraint=eastwest;newEdgeStyle={&quot;edgeStyle&quot;:&quot;elbowEdgeStyle&quot;,&quot;elbow&quot;:&quot;vertical&quot;,&quot;curved&quot;:0,&quot;rounded&quot;:0};size=65;" vertex="1" parent="1">
          <mxGeometry x="849" y="230" width="178" height="1540" as="geometry" />
        </mxCell>
        <mxCell id="3bQYq2WR-_ZfJbJef4W1-5" value="" style="points=[];perimeter=orthogonalPerimeter;outlineConnect=0;targetShapes=umlLifeline;portConstraint=eastwest;newEdgeStyle={&quot;edgeStyle&quot;:&quot;elbowEdgeStyle&quot;,&quot;elbow&quot;:&quot;vertical&quot;,&quot;curved&quot;:0,&quot;rounded&quot;:0}" vertex="1" parent="3bQYq2WR-_ZfJbJef4W1-4">
          <mxGeometry x="84" y="159" width="10" height="1341" as="geometry" />
        </mxCell>
        <mxCell id="3bQYq2WR-_ZfJbJef4W1-11" value="Repository" style="shape=umlLifeline;perimeter=lifelinePerimeter;whiteSpace=wrap;container=1;dropTarget=0;collapsible=0;recursiveResize=0;outlineConnect=0;portConstraint=eastwest;newEdgeStyle={&quot;edgeStyle&quot;:&quot;elbowEdgeStyle&quot;,&quot;elbow&quot;:&quot;vertical&quot;,&quot;curved&quot;:0,&quot;rounded&quot;:0};size=65;" vertex="1" parent="1">
          <mxGeometry x="1556" y="230" width="150" height="1540" as="geometry" />
        </mxCell>
        <mxCell id="3bQYq2WR-_ZfJbJef4W1-12" value="" style="points=[];perimeter=orthogonalPerimeter;outlineConnect=0;targetShapes=umlLifeline;portConstraint=eastwest;newEdgeStyle={&quot;edgeStyle&quot;:&quot;elbowEdgeStyle&quot;,&quot;elbow&quot;:&quot;vertical&quot;,&quot;curved&quot;:0,&quot;rounded&quot;:0}" vertex="1" parent="3bQYq2WR-_ZfJbJef4W1-11">
          <mxGeometry x="70" y="340" width="10" height="80" as="geometry" />
        </mxCell>
        <mxCell id="3bQYq2WR-_ZfJbJef4W1-16" value="Inimigo" style="shape=umlLifeline;perimeter=lifelinePerimeter;whiteSpace=wrap;container=1;dropTarget=0;collapsible=0;recursiveResize=0;outlineConnect=0;portConstraint=eastwest;newEdgeStyle={&quot;edgeStyle&quot;:&quot;elbowEdgeStyle&quot;,&quot;elbow&quot;:&quot;vertical&quot;,&quot;curved&quot;:0,&quot;rounded&quot;:0};size=65;" vertex="1" parent="1">
          <mxGeometry x="1830" y="230" width="150" height="1530" as="geometry" />
        </mxCell>
        <mxCell id="3bQYq2WR-_ZfJbJef4W1-17" value="" style="points=[];perimeter=orthogonalPerimeter;outlineConnect=0;targetShapes=umlLifeline;portConstraint=eastwest;newEdgeStyle={&quot;edgeStyle&quot;:&quot;elbowEdgeStyle&quot;,&quot;elbow&quot;:&quot;vertical&quot;,&quot;curved&quot;:0,&quot;rounded&quot;:0}" vertex="1" parent="3bQYq2WR-_ZfJbJef4W1-16">
          <mxGeometry x="70" y="939" width="10" height="378" as="geometry" />
        </mxCell>
        <mxCell id="3bQYq2WR-_ZfJbJef4W1-23" value="clicarCriarInimigo()" style="verticalAlign=bottom;edgeStyle=elbowEdgeStyle;elbow=vertical;curved=0;rounded=0;endArrow=block;" edge="1" parent="1" source="3bQYq2WR-_ZfJbJef4W1-1" target="3bQYq2WR-_ZfJbJef4W1-3">
          <mxGeometry relative="1" as="geometry">
            <Array as="points">
              <mxPoint x="562" y="337" />
            </Array>
          </mxGeometry>
        </mxCell>
        <mxCell id="3bQYq2WR-_ZfJbJef4W1-24" value="iniciarCriacaoFicha()" style="verticalAlign=bottom;edgeStyle=elbowEdgeStyle;elbow=vertical;curved=0;rounded=0;endArrow=block;" edge="1" parent="1" source="3bQYq2WR-_ZfJbJef4W1-3" target="3bQYq2WR-_ZfJbJef4W1-5">
          <mxGeometry relative="1" as="geometry">
            <Array as="points">
              <mxPoint x="815" y="389" />
            </Array>
          </mxGeometry>
        </mxCell>
        <mxCell id="3bQYq2WR-_ZfJbJef4W1-25" value="listarMonstros()" style="verticalAlign=bottom;edgeStyle=elbowEdgeStyle;elbow=vertical;curved=0;rounded=0;endArrow=block;" edge="1" parent="1" target="3bQYq2WR-_ZfJbJef4W1-11">
          <mxGeometry relative="1" as="geometry">
            <Array as="points">
              <mxPoint x="1108" y="570" />
            </Array>
            <mxPoint x="943" y="570" as="sourcePoint" />
            <mxPoint x="1252" y="570" as="targetPoint" />
          </mxGeometry>
        </mxCell>
        <mxCell id="3bQYq2WR-_ZfJbJef4W1-28" value="listaDeMonstros" style="verticalAlign=bottom;edgeStyle=elbowEdgeStyle;elbow=vertical;curved=0;rounded=0;dashed=1;dashPattern=2 3;endArrow=block;" edge="1" parent="1" source="3bQYq2WR-_ZfJbJef4W1-11" target="3bQYq2WR-_ZfJbJef4W1-5">
          <mxGeometry relative="1" as="geometry">
            <Array as="points">
              <mxPoint x="1109" y="646" />
            </Array>
            <mxPoint x="1256.5000000000005" y="646" as="sourcePoint" />
          </mxGeometry>
        </mxCell>
        <mxCell id="3bQYq2WR-_ZfJbJef4W1-29" value="exibirListaDeMonstros" style="verticalAlign=bottom;edgeStyle=elbowEdgeStyle;elbow=vertical;curved=0;rounded=0;dashed=1;dashPattern=2 3;endArrow=block;" edge="1" parent="1" source="3bQYq2WR-_ZfJbJef4W1-5" target="3bQYq2WR-_ZfJbJef4W1-1">
          <mxGeometry relative="1" as="geometry">
            <Array as="points">
              <mxPoint x="696" y="698" />
            </Array>
            <mxPoint as="offset" />
          </mxGeometry>
        </mxCell>
        <mxCell id="3bQYq2WR-_ZfJbJef4W1-30" value="SelecionarMonstro(idMonstro)" style="verticalAlign=bottom;edgeStyle=elbowEdgeStyle;elbow=vertical;curved=0;rounded=0;endArrow=block;" edge="1" parent="1" source="3bQYq2WR-_ZfJbJef4W1-1" target="3bQYq2WR-_ZfJbJef4W1-5">
          <mxGeometry relative="1" as="geometry">
            <Array as="points">
              <mxPoint x="693" y="750" />
            </Array>
          </mxGeometry>
        </mxCell>
        <mxCell id="3bQYq2WR-_ZfJbJef4W1-52" value="solicitarDescricao()" style="verticalAlign=bottom;edgeStyle=elbowEdgeStyle;elbow=vertical;curved=0;rounded=0;dashed=1;dashPattern=2 3;endArrow=block;" edge="1" parent="1">
          <mxGeometry relative="1" as="geometry">
            <Array as="points">
              <mxPoint x="696" y="900" />
            </Array>
            <mxPoint x="933" y="900" as="sourcePoint" />
            <mxPoint x="433.5" y="900" as="targetPoint" />
          </mxGeometry>
        </mxCell>
        <mxCell id="3bQYq2WR-_ZfJbJef4W1-53" value="atribuirDescricao(textoDescricao)" style="verticalAlign=bottom;edgeStyle=elbowEdgeStyle;elbow=vertical;curved=0;rounded=0;endArrow=block;" edge="1" parent="1">
          <mxGeometry relative="1" as="geometry">
            <Array as="points">
              <mxPoint x="693" y="952" />
            </Array>
            <mxPoint x="433.5" y="952" as="sourcePoint" />
            <mxPoint x="933" y="952" as="targetPoint" />
          </mxGeometry>
        </mxCell>
        <mxCell id="3bQYq2WR-_ZfJbJef4W1-54" value="finalizarCriacao()" style="verticalAlign=bottom;edgeStyle=elbowEdgeStyle;elbow=vertical;curved=0;rounded=0;endArrow=block;" edge="1" parent="1">
          <mxGeometry relative="1" as="geometry">
            <Array as="points">
              <mxPoint x="693" y="1050" />
            </Array>
            <mxPoint x="433.5" y="1050" as="sourcePoint" />
            <mxPoint x="933" y="1050" as="targetPoint" />
          </mxGeometry>
        </mxCell>
        <mxCell id="3bQYq2WR-_ZfJbJef4W1-55" value="&lt;&lt;create&gt;&gt;(todosDadosColetados)" style="verticalAlign=bottom;edgeStyle=elbowEdgeStyle;elbow=vertical;curved=0;rounded=0;endArrow=block;" edge="1" parent="1">
          <mxGeometry relative="1" as="geometry">
            <Array as="points">
              <mxPoint x="1572" y="1169" />
            </Array>
            <mxPoint x="943" y="1169" as="sourcePoint" />
            <mxPoint x="1904.5" y="1169" as="targetPoint" />
          </mxGeometry>
        </mxCell>
        <mxCell id="3bQYq2WR-_ZfJbJef4W1-56" value="validaInimigo()" style="verticalAlign=bottom;edgeStyle=elbowEdgeStyle;elbow=vertical;curved=0;rounded=0;endArrow=block;" edge="1" parent="1" target="3bQYq2WR-_ZfJbJef4W1-17">
          <mxGeometry x="-0.0003" relative="1" as="geometry">
            <Array as="points">
              <mxPoint x="1570" y="1254" />
            </Array>
            <mxPoint as="offset" />
            <mxPoint x="943" y="1254" as="sourcePoint" />
          </mxGeometry>
        </mxCell>
        <mxCell id="3bQYq2WR-_ZfJbJef4W1-57" value="[status_validacao]" style="verticalAlign=bottom;edgeStyle=elbowEdgeStyle;elbow=vertical;curved=0;rounded=0;dashed=1;dashPattern=2 3;endArrow=block;" edge="1" parent="1" source="3bQYq2WR-_ZfJbJef4W1-17">
          <mxGeometry relative="1" as="geometry">
            <Array as="points">
              <mxPoint x="1573" y="1306" />
            </Array>
            <mxPoint x="943" y="1306" as="targetPoint" />
          </mxGeometry>
        </mxCell>
        <mxCell id="3bQYq2WR-_ZfJbJef4W1-58" value="salvar(p)" style="verticalAlign=bottom;edgeStyle=elbowEdgeStyle;elbow=vertical;curved=0;rounded=0;endArrow=block;" edge="1" parent="1">
          <mxGeometry relative="1" as="geometry">
            <Array as="points">
              <mxPoint x="1426" y="1453" />
            </Array>
            <mxPoint x="1631" y="1453" as="targetPoint" />
            <mxPoint x="943" y="1453" as="sourcePoint" />
          </mxGeometry>
        </mxCell>
        <mxCell id="3bQYq2WR-_ZfJbJef4W1-59" value="[inimigo_salvo]" style="verticalAlign=bottom;edgeStyle=elbowEdgeStyle;elbow=vertical;curved=0;rounded=0;dashed=1;dashPattern=2 3;endArrow=block;" edge="1" parent="1">
          <mxGeometry relative="1" as="geometry">
            <Array as="points">
              <mxPoint x="1427" y="1505" />
            </Array>
            <mxPoint x="1631" y="1505" as="sourcePoint" />
            <mxPoint x="943" y="1505" as="targetPoint" />
          </mxGeometry>
        </mxCell>
        <mxCell id="3bQYq2WR-_ZfJbJef4W1-60" value="exibirConfirmacao(&quot;Inimigo criado com sucesso!&quot;)" style="verticalAlign=bottom;edgeStyle=elbowEdgeStyle;elbow=vertical;curved=0;rounded=0;dashed=1;dashPattern=2 3;endArrow=block;" edge="1" parent="1">
          <mxGeometry relative="1" as="geometry">
            <Array as="points">
              <mxPoint x="696" y="1557" />
            </Array>
            <mxPoint x="933" y="1557" as="sourcePoint" />
            <mxPoint x="433.5" y="1557" as="targetPoint" />
          </mxGeometry>
        </mxCell>
        <mxCell id="3bQYq2WR-_ZfJbJef4W1-61" value="exibirErro(&quot;Dados invÃ¡lidos.&quot;)" style="verticalAlign=bottom;edgeStyle=elbowEdgeStyle;elbow=vertical;curved=0;rounded=0;dashed=1;dashPattern=2 3;endArrow=block;" edge="1" parent="1">
          <mxGeometry relative="1" as="geometry">
            <Array as="points">
              <mxPoint x="696" y="1655" />
            </Array>
            <mxPoint x="933" y="1655" as="sourcePoint" />
            <mxPoint x="433.5" y="1655" as="targetPoint" />
          </mxGeometry>
        </mxCell>
        <mxCell id="3bQYq2WR-_ZfJbJef4W1-62" value="" style="points=[];perimeter=orthogonalPerimeter;outlineConnect=0;targetShapes=umlLifeline;portConstraint=eastwest;newEdgeStyle={&quot;edgeStyle&quot;:&quot;elbowEdgeStyle&quot;,&quot;elbow&quot;:&quot;vertical&quot;,&quot;curved&quot;:0,&quot;rounded&quot;:0}" vertex="1" parent="1">
          <mxGeometry x="1626" y="1455" width="10" height="50" as="geometry" />
        </mxCell>
      </root>
    </mxGraphModel>
  </diagram>
</mxfile>
